<svg width="200" height="200" xmlns="http://www.w3.org/2000/svg" version="1.1" baseProfile="full" viewBox="0 0 200 200">
<rect width="200" height="200" x="0" y="0" id="0" fill="none"></rect>
<path d="M100 10.6A10 10 0 0 1 111.1 0.6A100 100 0 0 1 149.4 13.1A10 10 0 0 1 152.6 27.6L149.6 31.7A10 10 0 0 1 136.6 34.6A75 75 0 0 0 108.8 25.5A10 10 0 0 1 100 15.6Z" fill="#D2222D" stroke="#fff" stroke-width="3" stroke-linejoin="round" transform-origin="100px 100px" class="zr0-cls-0"></path>
<path d="M152.6 27.6A10 10 0 0 1 167.4 26.1A100 100 0 0 1 191.1 58.7A10 10 0 0 1 185.1 72.4L180.3 73.9A10 10 0 0 1 168.1 68.6A75 75 0 0 0 150.9 44.9A10 10 0 0 1 149.6 31.7Z" fill="#D2222D" stroke="#fff" stroke-width="3" stroke-linejoin="round" transform-origin="100px 100px" class="zr0-cls-1"></path>
<path d="M185.1 72.4A10 10 0 0 1 198 79.9A100 100 0 0 1 198 120.1A10 10 0 0 1 185.1 127.6L180.3 126.1A10 10 0 0 1 173.6 114.6A75 75 0 0 0 173.6 85.4A10 10 0 0 1 180.3 73.9Z" fill="#D2222D" stroke="#fff" stroke-width="3" stroke-linejoin="round" transform-origin="100px 100px" class="zr0-cls-2"></path>
<path d="M185.1 127.6A10 10 0 0 1 191.1 141.3A100 100 0 0 1 167.4 173.9A10 10 0 0 1 152.6 172.4L149.6 168.3A10 10 0 0 1 150.9 155.1A75 75 0 0 0 168.1 131.4A10 10 0 0 1 180.3 126.1Z" fill="#D2222D" stroke="#fff" stroke-width="3" stroke-linejoin="round" transform-origin="100px 100px" class="zr0-cls-3"></path>
<path d="M152.6 172.4A10 10 0 0 1 149.4 186.9A100 100 0 0 1 111.1 199.4A10 10 0 0 1 100 189.4L100 184.4A10 10 0 0 1 108.8 174.5A75 75 0 0 0 136.6 165.4A10 10 0 0 1 149.6 168.3Z" fill="#D2222D" stroke="#fff" stroke-width="3" stroke-linejoin="round" transform-origin="100px 100px" class="zr0-cls-4"></path>
<path d="M100 189.4A10 10 0 0 1 88.9 199.4A100 100 0 0 1 50.6 186.9A10 10 0 0 1 47.4 172.4L50.4 168.3A10 10 0 0 1 63.4 165.4A75 75 0 0 0 91.2 174.5A10 10 0 0 1 100 184.4Z" fill="#FFBF00" stroke="#fff" stroke-width="3" stroke-linejoin="round" transform-origin="100px 100px" class="zr0-cls-5"></path>
<path d="M47.4 172.4A10 10 0 0 1 32.6 173.9A100 100 0 0 1 8.9 141.3A10 10 0 0 1 14.9 127.6L19.7 126.1A10 10 0 0 1 31.9 131.4A75 75 0 0 0 49.1 155.1A10 10 0 0 1 50.4 168.3Z" fill="#FFBF00" stroke="#fff" stroke-width="3" stroke-linejoin="round" transform-origin="100px 100px" class="zr0-cls-6"></path>
<path d="M14.9 127.6A10 10 0 0 1 2 120.1A100 100 0 0 1 1 86A10 10 0 0 1 13.4 77.8L18.2 79A10 10 0 0 1 25.7 90A75 75 0 0 0 26.4 114.6A10 10 0 0 1 19.7 126.1Z" fill="#FFBF00" stroke="#fff" stroke-width="3" stroke-linejoin="round" transform-origin="100px 100px" class="zr0-cls-7"></path>
<path d="M3.1 75.1L27.4 81.3Z" fill="#238823" stroke="#fff" stroke-width="3" stroke-linejoin="round" transform-origin="100px 100px" class="zr0-cls-8"></path>
<path d="M6.1 75.9A3 3 0 1 1 7.8 70.1L26.4 76.1A2.4 2.4 0 0 1 25 80.8Z" fill="#D0D0D0" stroke="#fff" stroke-width="3" stroke-linejoin="round" transform-origin="100px 100px" class="zr0-cls-9"></path>
<path d="M14.9 72.4A10 10 0 0 1 8.9 58.7A100 100 0 0 1 32.6 26.1A10 10 0 0 1 47.4 27.6L50.4 31.7A10 10 0 0 1 49.1 44.9A75 75 0 0 0 31.9 68.6A10 10 0 0 1 19.7 73.9Z" fill="#D0D0D0" stroke="#fff" stroke-width="3" stroke-linejoin="round" transform-origin="100px 100px" class="zr0-cls-10"></path>
<path d="M47.4 27.6A10 10 0 0 1 50.6 13.1A100 100 0 0 1 88.9 0.6A10 10 0 0 1 100 10.6L100 15.6A10 10 0 0 1 91.2 25.5A75 75 0 0 0 63.4 34.6A10 10 0 0 1 50.4 31.7Z" fill="#D0D0D0" stroke="#fff" stroke-width="3" stroke-linejoin="round" transform-origin="100px 100px" class="zr0-cls-11"></path>
<text dominant-baseline="central" text-anchor="middle" style="font-size:55px;font-family:sans-serif;font-weight:bold;" transform="translate(100 100)" fill="#000">79%</text>
<style ><![CDATA[
.zr0-cls-0 {
animation:zr0-ani-0 1s cubic-bezier(0.65,0,0.35,1) both;
}
.zr0-cls-1 {
animation:zr0-ani-1 1s cubic-bezier(0.65,0,0.35,1) both;
}
.zr0-cls-2 {
animation:zr0-ani-2 1s cubic-bezier(0.65,0,0.35,1) both;
}
.zr0-cls-3 {
animation:zr0-ani-3 1s cubic-bezier(0.65,0,0.35,1) both;
}
.zr0-cls-4 {
animation:zr0-ani-4 1s cubic-bezier(0.65,0,0.35,1) both;
}
.zr0-cls-5 {
animation:zr0-ani-5 1s cubic-bezier(0.65,0,0.35,1) both;
}
.zr0-cls-6 {
animation:zr0-ani-6 1s cubic-bezier(0.65,0,0.35,1) both;
}
.zr0-cls-7 {
animation:zr0-ani-7 1s cubic-bezier(0.65,0,0.35,1) both;
}
.zr0-cls-8 {
animation:zr0-ani-8 1s cubic-bezier(0.65,0,0.35,1) both;
}
.zr0-cls-9 {
animation:zr0-ani-9 1s cubic-bezier(0.65,0,0.35,1) both;
}
.zr0-cls-10 {
animation:zr0-ani-10 1s cubic-bezier(0.65,0,0.35,1) both;
}
.zr0-cls-11 {
animation:zr0-ani-11 1s cubic-bezier(0.65,0,0.35,1) both;
}
@keyframes zr0-ani-0 {
0% {
transform:scale(0,0);
}
100% {

}
}
@keyframes zr0-ani-1 {
0% {
transform:scale(0,0);
}
100% {

}
}
@keyframes zr0-ani-2 {
0% {
transform:scale(0,0);
}
100% {

}
}
@keyframes zr0-ani-3 {
0% {
transform:scale(0,0);
}
100% {

}
}
@keyframes zr0-ani-4 {
0% {
transform:scale(0,0);
}
100% {

}
}
@keyframes zr0-ani-5 {
0% {
transform:scale(0,0);
}
100% {

}
}
@keyframes zr0-ani-6 {
0% {
transform:scale(0,0);
}
100% {

}
}
@keyframes zr0-ani-7 {
0% {
transform:scale(0,0);
}
100% {

}
}
@keyframes zr0-ani-8 {
0% {
transform:scale(0,0);
}
100% {

}
}
@keyframes zr0-ani-9 {
0% {
transform:scale(0,0);
}
100% {

}
}
@keyframes zr0-ani-10 {
0% {
transform:scale(0,0);
}
100% {

}
}
@keyframes zr0-ani-11 {
0% {
transform:scale(0,0);
}
100% {

}
}
]]>

</style>
</svg>
